<svg xmlns="http://www.w3.org/2000/svg" width="52" height="52" viewBox="0 0 52 52">
  <defs>
    <style>
      .cls-1 {
        fill: #f0f2f5;
      }

      .cls-2 {
        fill: #d6d6d6;
      }

      .cls-3 {
        fill: #fefefe;
      }
    </style>
  </defs>
  <g id="头像_男孩" data-name="头像 男孩" transform="translate(-1.892)">
    <path id="路径_4" data-name="路径 4" class="cls-1" d="M27.891,0A26.011,26.011,0,0,0,13.057,47.369,14.2,14.2,0,0,1,22.24,37.75q.253-.088.509-.167l.146-.046q.665-.2,1.345-.342l.185-.037q.613-.123,1.235-.2l.21-.027q.357-.042.715-.069h.942a2.159,2.159,0,0,0,.282,0h.084A12.241,12.241,0,0,1,15.661,25.02l-.022-.013c-.421-7.879,6.692-12.723,11.852-12.625.134,0,.267-.01.4-.01s.254.006.381.01a10.858,10.858,0,0,1,4.733,1.111,12.244,12.244,0,0,1,2.912,1.884,11.632,11.632,0,0,1,4.215,9.631l-.01.006A12.24,12.24,0,0,1,27.892,36.862h1.319q.358.027.714.069l.212.027q.366.045.729.107.251.043.5.092c.064.013.128.024.191.038q.677.143,1.34.341l.157.049q.25.078.5.163a14.209,14.209,0,0,1,9.187,9.615A26.011,26.011,0,0,0,27.891,0Z" transform="translate(0)"/>
    <path id="联合_2" data-name="联合 2" class="cls-2" d="M.04,12.6l-.022-.013C-.4,4.737,6.687-.088,11.828.01c.134,0,.266-.01.4-.01s.253.006.378.009a10.816,10.816,0,0,1,4.717,1.106,13.172,13.172,0,0,1,2.9,1.877,11.586,11.586,0,0,1,4.2,9.594l-.01.006A12.195,12.195,0,0,1,.04,12.6Zm2.635.77h0Zm-.083,0A4.788,4.788,0,0,1,.04,12.6,4.786,4.786,0,0,0,2.592,13.37Zm21.824-.778c-2.275,1.42-7.153.39-10.713-1.9C17.263,12.982,22.141,14.012,24.416,12.592ZM9.928,7.745l.084-.14Zm.185-.31.032-.055ZM12.21.023a3.163,3.163,0,0,1,.107.758A3.163,3.163,0,0,0,12.21.023h0c-.065,0-.131-.007-.2-.009Zm5.114,1.092a12.189,12.189,0,0,1,2.9,1.877A13.172,13.172,0,0,0,17.324,1.115Z" transform="translate(15.663 12.406)"/>
    <path id="联合_1" data-name="联合 1" class="cls-2" d="M0,10.4A14.176,14.176,0,0,1,9.1.855a6.024,6.024,0,0,0,.529,1.112c.175-.263.393-.348.655-.165l2.3,1.6,2.14,1.5h0c.052,0,.1,0,.155,0s.1,0,.15,0l-.15.1.15-.1,2.141-1.5,2.3-1.6c.263-.185.483-.1.658.171l.028.045-.028-.045A6.123,6.123,0,0,0,20.655.853L20.546.814a14.2,14.2,0,0,1,9.211,9.578,26.062,26.062,0,0,1-14.883,4.637A26.058,26.058,0,0,1,0,10.4ZM19.744,8.313h0Zm-9.464-.1,2.3-1.6,2.29-1.6-2.29,1.6-2.3,1.6c-.969.678-1.344-2.3-1.125-4.45C8.935,5.916,9.31,8.892,10.28,8.215Zm9.446.1a.435.435,0,0,1-.21-.064A.434.434,0,0,0,19.726,8.313Zm-.236-.08-.028-.018Zm-2.325-1.62,2.3,1.6-2.3-1.6-2.291-1.6ZM14.868,5.011Zm5.356-2.85c-.013-.027-.026-.054-.039-.079C20.2,2.107,20.211,2.133,20.224,2.161ZM9.1.855c.037-.013.074-.027.112-.039L9.1.855ZM19.891.6l.158.049ZM9.864.6,9.719.649ZM18.356.225l.192.038ZM11.4.226c-.062.012-.124.023-.185.037C11.274.249,11.337.238,11.4.226ZM16.913,0c.072.008.142.018.213.027C17.055.018,16.985.008,16.913,0ZM12.847,0c-.071.008-.14.018-.211.027C12.707.018,12.776.008,12.847,0Z" transform="translate(13.017 36.972)"/>
    <path id="路径_7" data-name="路径 7" class="cls-3" d="M400.921,727.69c.174-.263.391-.348.652-.165l2.283,1.6,2.128,1.5c.052,0,.1,0,.155,0s.1,0,.149,0l2.128-1.5,2.283-1.6c.262-.185.479-.1.654.171a6.049,6.049,0,0,0,.53-1.121l-.108-.038q-.246-.085-.494-.162l-.156-.049q-.66-.2-1.335-.34l-.19-.038q-.361-.072-.726-.129-.248-.038-.5-.07l-.211-.027q-.355-.041-.711-.069h-1.4a2.155,2.155,0,0,1-.281,0h-.938q-.357.027-.712.069l-.209.027q-.364.046-.727.107-.254.043-.5.093l-.184.036q-.677.143-1.341.341l-.145.046q-.311.1-.619.206a6.038,6.038,0,0,0,.525,1.112Z" transform="translate(-378.247 -688.791)"/>
  </g>
</svg>
