<svg xmlns="http://www.w3.org/2000/svg" width="48" height="48" viewBox="0 0 48 48">
  <defs>
    <style>
      .cls-1 {
        fill: #ff4600;
      }

      .cls-2 {
        fill: #fff;
      }
    </style>
  </defs>
  <g id="组_19" transform="translate(-10 -186)">
    <rect id="矩形_48" class="cls-1" width="48" height="48" rx="5" transform="translate(10 186)"/>
    <path id="通知" class="cls-2" d="M105.025,32a3.292,3.292,0,0,0,3.282-3.282h-6.564A3.282,3.282,0,0,0,105.025,32m9.846-9.846V13.949c0-5.038-2.69-9.255-7.385-10.371V2.462a2.462,2.462,0,1,0-4.923,0V3.577c-4.71,1.116-7.385,5.317-7.385,10.371v8.205L91.9,25.436v1.641h26.256V25.436l-3.282-3.282Z" transform="translate(-70.897 194)"/>
  </g>
</svg>
