<svg xmlns="http://www.w3.org/2000/svg" width="48" height="48" viewBox="0 0 48 48">
  <defs>
    <style>
      .cls-1 {
        fill: #00c120;
      }

      .cls-2 {
        fill: #fff;
      }
    </style>
  </defs>
  <g id="组_26" transform="translate(-10 -269)">
    <g id="组_23" transform="translate(0 166)">
      <g id="组_21">
        <rect id="矩形_40" class="cls-1" width="48" height="48" rx="5" transform="translate(10 103)"/>
      </g>
    </g>
    <path id="路径_68" class="cls-2" d="M123.712,81.835a6.658,6.658,0,0,1,3.768,1.19h.151V65.486A1.415,1.415,0,0,0,126.122,64H103.509A1.416,1.416,0,0,0,102,65.486V90.753a1.415,1.415,0,0,0,1.509,1.486h14.626a6.443,6.443,0,0,1-1.207-3.716,6.709,6.709,0,0,1,6.784-6.688Zm-16.586-11.89h15.08a.743.743,0,1,1,0,1.486h-15.08a.743.743,0,1,1,0-1.486Zm0,7.431h15.08a.743.743,0,1,1,0,1.486h-15.08a.743.743,0,1,1,0-1.486Zm7.842,8.918h-7.99a.76.76,0,0,1,0-1.486h7.99a.76.76,0,0,1,0,1.486Z" transform="translate(-81.469 214.269)"/>
    <path id="路径_69" class="cls-2" d="M619.262,652.808a5.051,5.051,0,1,0,4.844,5.047A5.049,5.049,0,0,0,619.262,652.808Zm3.107,3.407-2.711,2.711-1.34,1.34a.466.466,0,0,1-.753.013l-1.848-1.848a.622.622,0,0,1,.066-.8.569.569,0,0,1,.763,0l1.388,1.391,3.624-3.634a.546.546,0,0,1,.763.039A.56.56,0,0,1,622.37,656.214Z" transform="translate(-576.637 -355.174)"/>
  </g>
</svg>
