<svg xmlns="http://www.w3.org/2000/svg" width="48" height="48" viewBox="0 0 48 48">
  <defs>
    <style>
      .cls-1 {
        fill: #00a4ff;
      }

      .cls-2 {
        fill: #fff;
      }
    </style>
  </defs>
  <g id="组_27" transform="translate(-10 -103)">
    <g id="组_20">
      <g id="组_21">
        <rect id="矩形_40" class="cls-1" width="48" height="48" rx="5" transform="translate(10 103)"/>
        <g id="组_22">
          <path id="路径_66" class="cls-2" d="M79.346,74a3.675,3.675,0,0,1,3.675,3.614V85.32l-.078,2.388a8.389,8.389,0,1,0-8.627,14.39l-3.954-.026H60.675A3.675,3.675,0,0,1,57,98.459V77.674A3.675,3.675,0,0,1,60.614,74H79.346ZM66.262,92.739h-4.19a.955.955,0,1,0,0,1.911h4.19a.955.955,0,0,0,0-1.911Zm2.793-6.908H62.072a.955.955,0,1,0,0,1.911h6.983a.955.955,0,1,0,0-1.911Zm6.787-6.908H62.049a.955.955,0,0,0,.023,1.91H75.865a.955.955,0,0,0-.023-1.91Z" transform="translate(-37.449 38.887)"/>
          <path id="路径_67" class="cls-2" d="M510.32,499a7.32,7.32,0,1,1-7.32,7.32A7.32,7.32,0,0,1,510.32,499Zm.772,3.311a.736.736,0,0,0-.736.736v3.506l-2.107,2.493-.014.017a.736.736,0,0,0,1.138.933l2.2-2.6a.734.734,0,0,0,.255-.557v-3.81A.736.736,0,0,0,511.093,502.311Z" transform="translate(-469.192 -372.527)"/>
        </g>
      </g>
    </g>
  </g>
</svg>
